# xmcd
#
# Track frame offsets:
#	150
#	13400
#	26275
#	41325
#	60650
#	73100
#
# Disc length: 1201 seconds
#
# Revision: 0
# Processed by: cddbd v1.4PL0 Copyright (c) Steve Scherf et al.
# Submitted via: dBpowerAMP V4.0
#
DISCID=4904af06
DTITLE=Adam Stone - Ray of Hope
DYEAR=2003
DGENRE=Country
TTITLE0=Lay It On Me Baby
TTITLE1=American Dream
TTITLE2=Ray Of Hope
TTITLE3=The Best Days Of Our Lives
TTITLE4=A Woman Like You
TTITLE5=Day By Day
EXTD=Stone Country Productions
EXTT0=
EXTT1=
EXTT2=
EXTT3=
EXTT4=
EXTT5=
PLAYORDER=
